<?xml version="1.0" encoding="UTF-8" standalone="no"?>
<!DOCTYPE svg PUBLIC "-//W3C//DTD SVG 1.1//EN"
 "http://www.w3.org/Graphics/SVG/1.1/DTD/svg11.dtd">
<!-- Generated by graphviz version 2.38.0 (20140413.2041)
 -->
<!-- Title: G Pages: 1 -->
<svg width="730pt" height="1715pt"
 viewBox="0.00 0.00 729.79 1715.00" xmlns="http://www.w3.org/2000/svg" xmlns:xlink="http://www.w3.org/1999/xlink">
<g id="graph0" class="graph" transform="scale(1 1) rotate(0) translate(4 1711)">
<title>G</title>
<polygon fill="white" stroke="none" points="-4,4 -4,-1711 725.786,-1711 725.786,4 -4,4"/>
<!-- Less -->
<g id="node1" class="node"><title>Less</title>
<polygon fill="none" stroke="black" points="290.786,-747.5 290.786,-793.5 435.786,-793.5 435.786,-747.5 290.786,-747.5"/>
<text text-anchor="middle" x="312.286" y="-766.8" font-family="Times New Roman,serif" font-size="14.00">Less</text>
<polyline fill="none" stroke="black" points="333.786,-747.5 333.786,-793.5 "/>
<text text-anchor="middle" x="384.786" y="-778.3" font-family="Times New Roman,serif" font-size="14.00">shape:</text>
<polyline fill="none" stroke="black" points="333.786,-770.5 435.786,-770.5 "/>
<text text-anchor="middle" x="384.786" y="-755.3" font-family="Times New Roman,serif" font-size="14.00">[2, 512, 512, 1]</text>
</g>
<!-- apply_filter_12 -->
<g id="node2" class="node"><title>apply_filter_12</title>
<polygon fill="none" stroke="black" points="453.786,-581.5 453.786,-627.5 656.786,-627.5 656.786,-581.5 453.786,-581.5"/>
<text text-anchor="middle" x="504.286" y="-600.8" font-family="Times New Roman,serif" font-size="14.00">apply_filter_12</text>
<polyline fill="none" stroke="black" points="554.786,-581.5 554.786,-627.5 "/>
<text text-anchor="middle" x="605.786" y="-612.3" font-family="Times New Roman,serif" font-size="14.00">shape:</text>
<polyline fill="none" stroke="black" points="554.786,-604.5 656.786,-604.5 "/>
<text text-anchor="middle" x="605.786" y="-589.3" font-family="Times New Roman,serif" font-size="14.00">[2, 512, 512, 1]</text>
</g>
<!-- apply_filter_13 -->
<g id="node21" class="node"><title>apply_filter_13</title>
<polygon fill="none" stroke="black" points="160.786,-498.5 160.786,-544.5 363.786,-544.5 363.786,-498.5 160.786,-498.5"/>
<text text-anchor="middle" x="211.286" y="-517.8" font-family="Times New Roman,serif" font-size="14.00">apply_filter_13</text>
<polyline fill="none" stroke="black" points="261.786,-498.5 261.786,-544.5 "/>
<text text-anchor="middle" x="312.786" y="-529.3" font-family="Times New Roman,serif" font-size="14.00">shape:</text>
<polyline fill="none" stroke="black" points="261.786,-521.5 363.786,-521.5 "/>
<text text-anchor="middle" x="312.786" y="-506.3" font-family="Times New Roman,serif" font-size="14.00">[2, 512, 512, 1]</text>
</g>
<!-- apply_filter_12&#45;&gt;apply_filter_13 -->
<g id="edge27" class="edge"><title>apply_filter_12:0&#45;&gt;apply_filter_13:0</title>
<path fill="none" stroke="black" d="M456.408,-581.447C455.698,-581.297 454.991,-581.148 454.286,-581 414.956,-572.741 307.651,-577.55 269.702,-551.5"/>
<polygon fill="black" stroke="black" points="271.776,-548.661 261.983,-544.618 267.118,-553.885 271.776,-548.661"/>
</g>
<!-- Placeholder -->
<g id="node3" class="node"><title>Placeholder</title>
<polygon fill="none" stroke="black" points="180.286,-1660.5 180.286,-1706.5 364.286,-1706.5 364.286,-1660.5 180.286,-1660.5"/>
<text text-anchor="middle" x="221.286" y="-1679.8" font-family="Times New Roman,serif" font-size="14.00">Placeholder</text>
<polyline fill="none" stroke="black" points="262.286,-1660.5 262.286,-1706.5 "/>
<text text-anchor="middle" x="313.286" y="-1691.3" font-family="Times New Roman,serif" font-size="14.00">shape:</text>
<polyline fill="none" stroke="black" points="262.286,-1683.5 364.286,-1683.5 "/>
<text text-anchor="middle" x="313.286" y="-1668.3" font-family="Times New Roman,serif" font-size="14.00">[2, 512, 512, 1]</text>
</g>
<!-- apply_filter_0 -->
<g id="node11" class="node"><title>apply_filter_0</title>
<polygon fill="none" stroke="black" points="267.286,-1577.5 267.286,-1623.5 463.286,-1623.5 463.286,-1577.5 267.286,-1577.5"/>
<text text-anchor="middle" x="314.286" y="-1596.8" font-family="Times New Roman,serif" font-size="14.00">apply_filter_0</text>
<polyline fill="none" stroke="black" points="361.286,-1577.5 361.286,-1623.5 "/>
<text text-anchor="middle" x="412.286" y="-1608.3" font-family="Times New Roman,serif" font-size="14.00">shape:</text>
<polyline fill="none" stroke="black" points="361.286,-1600.5 463.286,-1600.5 "/>
<text text-anchor="middle" x="412.286" y="-1585.3" font-family="Times New Roman,serif" font-size="14.00">[2, 512, 512, 1]</text>
</g>
<!-- Placeholder&#45;&gt;apply_filter_0 -->
<g id="edge1" class="edge"><title>Placeholder:0&#45;&gt;apply_filter_0:0</title>
<path fill="none" stroke="black" d="M321.754,-1660.37C333.849,-1652.83 345.981,-1643.42 355.452,-1631.9"/>
<polygon fill="black" stroke="black" points="358.459,-1633.71 361.551,-1623.58 352.814,-1629.57 358.459,-1633.71"/>
</g>
<!-- apply_filter_11 -->
<g id="node4" class="node"><title>apply_filter_11</title>
<polygon fill="none" stroke="black" points="453.786,-664.5 453.786,-710.5 656.786,-710.5 656.786,-664.5 453.786,-664.5"/>
<text text-anchor="middle" x="504.286" y="-683.8" font-family="Times New Roman,serif" font-size="14.00">apply_filter_11</text>
<polyline fill="none" stroke="black" points="554.786,-664.5 554.786,-710.5 "/>
<text text-anchor="middle" x="605.786" y="-695.3" font-family="Times New Roman,serif" font-size="14.00">shape:</text>
<polyline fill="none" stroke="black" points="554.786,-687.5 656.786,-687.5 "/>
<text text-anchor="middle" x="605.786" y="-672.3" font-family="Times New Roman,serif" font-size="14.00">[2, 512, 512, 1]</text>
</g>
<!-- apply_filter_11&#45;&gt;apply_filter_12 -->
<g id="edge25" class="edge"><title>apply_filter_11:0&#45;&gt;apply_filter_12:0</title>
<path fill="none" stroke="black" d="M555.286,-664.38C555.286,-656.175 555.286,-646.768 555.286,-637.879"/>
<polygon fill="black" stroke="black" points="558.786,-637.784 555.286,-627.784 551.786,-637.784 558.786,-637.784"/>
</g>
<!-- apply_filter_6 -->
<g id="node5" class="node"><title>apply_filter_6</title>
<polygon fill="none" stroke="black" points="456.286,-1079.5 456.286,-1125.5 652.286,-1125.5 652.286,-1079.5 456.286,-1079.5"/>
<text text-anchor="middle" x="503.286" y="-1098.8" font-family="Times New Roman,serif" font-size="14.00">apply_filter_6</text>
<polyline fill="none" stroke="black" points="550.286,-1079.5 550.286,-1125.5 "/>
<text text-anchor="middle" x="601.286" y="-1110.3" font-family="Times New Roman,serif" font-size="14.00">shape:</text>
<polyline fill="none" stroke="black" points="550.286,-1102.5 652.286,-1102.5 "/>
<text text-anchor="middle" x="601.286" y="-1087.3" font-family="Times New Roman,serif" font-size="14.00">[2, 512, 512, 1]</text>
</g>
<!-- apply_filter_7 -->
<g id="node8" class="node"><title>apply_filter_7</title>
<polygon fill="none" stroke="black" points="456.286,-996.5 456.286,-1042.5 652.286,-1042.5 652.286,-996.5 456.286,-996.5"/>
<text text-anchor="middle" x="503.286" y="-1015.8" font-family="Times New Roman,serif" font-size="14.00">apply_filter_7</text>
<polyline fill="none" stroke="black" points="550.286,-996.5 550.286,-1042.5 "/>
<text text-anchor="middle" x="601.286" y="-1027.3" font-family="Times New Roman,serif" font-size="14.00">shape:</text>
<polyline fill="none" stroke="black" points="550.286,-1019.5 652.286,-1019.5 "/>
<text text-anchor="middle" x="601.286" y="-1004.3" font-family="Times New Roman,serif" font-size="14.00">[2, 512, 512, 1]</text>
</g>
<!-- apply_filter_6&#45;&gt;apply_filter_7 -->
<g id="edge15" class="edge"><title>apply_filter_6:0&#45;&gt;apply_filter_7:0</title>
<path fill="none" stroke="black" d="M554.286,-1079.38C554.286,-1071.17 554.286,-1061.77 554.286,-1052.88"/>
<polygon fill="black" stroke="black" points="557.786,-1052.78 554.286,-1042.78 550.786,-1052.78 557.786,-1052.78"/>
</g>
<!-- apply_filter_18 -->
<g id="node6" class="node"><title>apply_filter_18</title>
<polygon fill="none" stroke="black" points="453.786,-83.5 453.786,-129.5 656.786,-129.5 656.786,-83.5 453.786,-83.5"/>
<text text-anchor="middle" x="504.286" y="-102.8" font-family="Times New Roman,serif" font-size="14.00">apply_filter_18</text>
<polyline fill="none" stroke="black" points="554.786,-83.5 554.786,-129.5 "/>
<text text-anchor="middle" x="605.786" y="-114.3" font-family="Times New Roman,serif" font-size="14.00">shape:</text>
<polyline fill="none" stroke="black" points="554.786,-106.5 656.786,-106.5 "/>
<text text-anchor="middle" x="605.786" y="-91.3" font-family="Times New Roman,serif" font-size="14.00">[2, 512, 512, 1]</text>
</g>
<!-- apply_filter_19 -->
<g id="node20" class="node"><title>apply_filter_19</title>
<polygon fill="none" stroke="black" points="518.786,-0.5 518.786,-46.5 721.786,-46.5 721.786,-0.5 518.786,-0.5"/>
<text text-anchor="middle" x="569.286" y="-19.8" font-family="Times New Roman,serif" font-size="14.00">apply_filter_19</text>
<polyline fill="none" stroke="black" points="619.786,-0.5 619.786,-46.5 "/>
<text text-anchor="middle" x="670.786" y="-31.3" font-family="Times New Roman,serif" font-size="14.00">shape:</text>
<polyline fill="none" stroke="black" points="619.786,-23.5 721.786,-23.5 "/>
<text text-anchor="middle" x="670.786" y="-8.3" font-family="Times New Roman,serif" font-size="14.00">[2, 512, 512, 1]</text>
</g>
<!-- apply_filter_18&#45;&gt;apply_filter_19 -->
<g id="edge39" class="edge"><title>apply_filter_18:0&#45;&gt;apply_filter_19:0</title>
<path fill="none" stroke="black" d="M555.095,-83.4512C555.157,-83.2998 555.22,-83.1494 555.286,-83 560.199,-71.8425 568.351,-61.866 577.251,-53.4163"/>
<polygon fill="black" stroke="black" points="579.684,-55.9369 584.847,-46.6853 575.041,-50.6977 579.684,-55.9369"/>
</g>
<!-- mean_filter_weights -->
<g id="node7" class="node"><title>mean_filter_weights</title>
<polygon fill="none" stroke="black" points="382.786,-1660.5 382.786,-1706.5 599.786,-1706.5 599.786,-1660.5 382.786,-1660.5"/>
<text text-anchor="middle" x="446.786" y="-1679.8" font-family="Times New Roman,serif" font-size="14.00">mean_filter_weights</text>
<polyline fill="none" stroke="black" points="510.786,-1660.5 510.786,-1706.5 "/>
<text text-anchor="middle" x="555.286" y="-1691.3" font-family="Times New Roman,serif" font-size="14.00">shape:</text>
<polyline fill="none" stroke="black" points="510.786,-1683.5 599.786,-1683.5 "/>
<text text-anchor="middle" x="555.286" y="-1668.3" font-family="Times New Roman,serif" font-size="14.00">[60, 60, 1, 1]</text>
</g>
<!-- mean_filter_weights&#45;&gt;apply_filter_12 -->
<g id="edge26" class="edge"><title>mean_filter_weights:0&#45;&gt;apply_filter_12:0</title>
<path fill="none" stroke="black" d="M685.286,-686.5C669.878,-641.834 592.424,-634.184 564.757,-629.991"/>
<polygon fill="black" stroke="black" points="565.554,-626.583 555.008,-627.599 563.885,-633.381 565.554,-626.583"/>
<path fill="none" stroke="black" d="M685.286,-769.5C673.546,-735.468 697.026,-722.532 685.286,-688.5"/>
</g>
<!-- mean_filter_weights&#45;&gt;apply_filter_11 -->
<g id="edge24" class="edge"><title>mean_filter_weights:0&#45;&gt;apply_filter_11:0</title>
<path fill="none" stroke="black" d="M685.286,-769.5C669.878,-724.834 592.424,-717.184 564.757,-712.991"/>
<polygon fill="black" stroke="black" points="565.554,-709.583 555.008,-710.599 563.885,-716.381 565.554,-709.583"/>
<path fill="none" stroke="black" d="M685.286,-852.5C673.546,-818.468 697.026,-805.532 685.286,-771.5"/>
</g>
<!-- mean_filter_weights&#45;&gt;apply_filter_6 -->
<g id="edge14" class="edge"><title>mean_filter_weights:0&#45;&gt;apply_filter_6:0</title>
<path fill="none" stroke="black" d="M680.286,-1184.5C672.238,-1160.59 652.298,-1143.04 630.596,-1130.46"/>
<polygon fill="black" stroke="black" points="632.009,-1127.24 621.552,-1125.54 628.664,-1133.39 632.009,-1127.24"/>
<path fill="none" stroke="black" d="M680.286,-1267.5C668.804,-1233.38 691.769,-1220.62 680.286,-1186.5"/>
</g>
<!-- mean_filter_weights&#45;&gt;apply_filter_18 -->
<g id="edge38" class="edge"><title>mean_filter_weights:0&#45;&gt;apply_filter_18:0</title>
<path fill="none" stroke="black" d="M495.162,-1660.24C497.038,-1643.47 497.689,-1620.52 491.286,-1601.5"/>
<path fill="none" stroke="black" d="M262.286,-603.5C244.101,-550.783 194.743,-579.947 151.286,-545 141.087,-536.798 141.975,-531.3 132.286,-522.5"/>
<path fill="none" stroke="black" d="M132.286,-520.5C91.0047,-483.008 54.2289,-506.995 21.2862,-462 -6.8585,-423.558 2.28617,-404.143 2.28617,-356.5 2.28617,-356.5 2.28617,-356.5 2.28617,-271.5 2.28617,-248.3 291.85,-172.278 451.911,-132.028"/>
<polygon fill="black" stroke="black" points="452.943,-135.377 461.79,-129.548 451.239,-128.588 452.943,-135.377"/>
<path fill="none" stroke="black" d="M491.286,-1599.5C469.81,-1535.68 362.186,-1589.57 321.286,-1541 254.201,-1461.33 296.251,-703.957 262.286,-605.5"/>
</g>
<!-- mean_filter_weights&#45;&gt;apply_filter_7 -->
<g id="edge16" class="edge"><title>mean_filter_weights:0&#45;&gt;apply_filter_7:0</title>
<path fill="none" stroke="black" d="M680.286,-1101.5C672.238,-1077.59 652.298,-1060.04 630.596,-1047.46"/>
<polygon fill="black" stroke="black" points="632.009,-1044.24 621.552,-1042.54 628.664,-1050.39 632.009,-1044.24"/>
<path fill="none" stroke="black" d="M680.286,-1184.5C668.804,-1150.38 691.769,-1137.62 680.286,-1103.5"/>
</g>
<!-- apply_filter_2 -->
<g id="node9" class="node"><title>apply_filter_2</title>
<polygon fill="none" stroke="black" points="456.286,-1411.5 456.286,-1457.5 652.286,-1457.5 652.286,-1411.5 456.286,-1411.5"/>
<text text-anchor="middle" x="503.286" y="-1430.8" font-family="Times New Roman,serif" font-size="14.00">apply_filter_2</text>
<polyline fill="none" stroke="black" points="550.286,-1411.5 550.286,-1457.5 "/>
<text text-anchor="middle" x="601.286" y="-1442.3" font-family="Times New Roman,serif" font-size="14.00">shape:</text>
<polyline fill="none" stroke="black" points="550.286,-1434.5 652.286,-1434.5 "/>
<text text-anchor="middle" x="601.286" y="-1419.3" font-family="Times New Roman,serif" font-size="14.00">[2, 512, 512, 1]</text>
</g>
<!-- mean_filter_weights&#45;&gt;apply_filter_2 -->
<g id="edge6" class="edge"><title>mean_filter_weights:0&#45;&gt;apply_filter_2:0</title>
<path fill="none" stroke="black" d="M554.286,-1516.5C559.333,-1500.99 559.862,-1482.94 558.907,-1467.73"/>
<polygon fill="black" stroke="black" points="562.391,-1467.38 558.046,-1457.72 555.416,-1467.98 562.391,-1467.38"/>
</g>
<!-- apply_filter_8 -->
<g id="node10" class="node"><title>apply_filter_8</title>
<polygon fill="none" stroke="black" points="456.286,-913.5 456.286,-959.5 652.286,-959.5 652.286,-913.5 456.286,-913.5"/>
<text text-anchor="middle" x="503.286" y="-932.8" font-family="Times New Roman,serif" font-size="14.00">apply_filter_8</text>
<polyline fill="none" stroke="black" points="550.286,-913.5 550.286,-959.5 "/>
<text text-anchor="middle" x="601.286" y="-944.3" font-family="Times New Roman,serif" font-size="14.00">shape:</text>
<polyline fill="none" stroke="black" points="550.286,-936.5 652.286,-936.5 "/>
<text text-anchor="middle" x="601.286" y="-921.3" font-family="Times New Roman,serif" font-size="14.00">[2, 512, 512, 1]</text>
</g>
<!-- mean_filter_weights&#45;&gt;apply_filter_8 -->
<g id="edge18" class="edge"><title>mean_filter_weights:0&#45;&gt;apply_filter_8:0</title>
<path fill="none" stroke="black" d="M491.286,-1599.5C476.739,-1556.28 540.174,-1561.87 554.286,-1518.5"/>
<path fill="none" stroke="black" d="M554.286,-1516.5C558.336,-1504.05 545.87,-1501.7 535.286,-1494 501.114,-1469.14 472.498,-1491.91 447.286,-1458 380.954,-1368.78 428.626,-1320.05 423.286,-1209 418.711,-1113.84 386.714,-1069.53 447.286,-996 475.831,-961.349 512.976,-991.748 543.416,-966.756"/>
<polygon fill="black" stroke="black" points="545.975,-969.148 550.6,-959.615 541.04,-964.183 545.975,-969.148"/>
</g>
<!-- mean_filter_weights&#45;&gt;apply_filter_0 -->
<g id="edge2" class="edge"><title>mean_filter_weights:0&#45;&gt;apply_filter_0:0</title>
<path fill="none" stroke="black" d="M456.188,-1660.38C441.566,-1650.75 424.43,-1639.46 409.002,-1629.3"/>
<polygon fill="black" stroke="black" points="410.909,-1626.36 400.633,-1623.78 407.059,-1632.21 410.909,-1626.36"/>
</g>
<!-- apply_filter_5 -->
<g id="node12" class="node"><title>apply_filter_5</title>
<polygon fill="none" stroke="black" points="456.286,-1162.5 456.286,-1208.5 652.286,-1208.5 652.286,-1162.5 456.286,-1162.5"/>
<text text-anchor="middle" x="503.286" y="-1181.8" font-family="Times New Roman,serif" font-size="14.00">apply_filter_5</text>
<polyline fill="none" stroke="black" points="550.286,-1162.5 550.286,-1208.5 "/>
<text text-anchor="middle" x="601.286" y="-1193.3" font-family="Times New Roman,serif" font-size="14.00">shape:</text>
<polyline fill="none" stroke="black" points="550.286,-1185.5 652.286,-1185.5 "/>
<text text-anchor="middle" x="601.286" y="-1170.3" font-family="Times New Roman,serif" font-size="14.00">[2, 512, 512, 1]</text>
</g>
<!-- mean_filter_weights&#45;&gt;apply_filter_5 -->
<g id="edge12" class="edge"><title>mean_filter_weights:0&#45;&gt;apply_filter_5:0</title>
<path fill="none" stroke="black" d="M680.286,-1267.5C672.238,-1243.59 652.298,-1226.04 630.596,-1213.46"/>
<polygon fill="black" stroke="black" points="632.009,-1210.24 621.552,-1208.54 628.664,-1216.39 632.009,-1210.24"/>
<path fill="none" stroke="black" d="M680.286,-1350.5C668.804,-1316.38 691.769,-1303.62 680.286,-1269.5"/>
</g>
<!-- apply_filter_9 -->
<g id="node13" class="node"><title>apply_filter_9</title>
<polygon fill="none" stroke="black" points="457.286,-830.5 457.286,-876.5 653.286,-876.5 653.286,-830.5 457.286,-830.5"/>
<text text-anchor="middle" x="504.286" y="-849.8" font-family="Times New Roman,serif" font-size="14.00">apply_filter_9</text>
<polyline fill="none" stroke="black" points="551.286,-830.5 551.286,-876.5 "/>
<text text-anchor="middle" x="602.286" y="-861.3" font-family="Times New Roman,serif" font-size="14.00">shape:</text>
<polyline fill="none" stroke="black" points="551.286,-853.5 653.286,-853.5 "/>
<text text-anchor="middle" x="602.286" y="-838.3" font-family="Times New Roman,serif" font-size="14.00">[2, 512, 512, 1]</text>
</g>
<!-- mean_filter_weights&#45;&gt;apply_filter_9 -->
<g id="edge20" class="edge"><title>mean_filter_weights:0&#45;&gt;apply_filter_9:0</title>
<path fill="none" stroke="black" d="M685.286,-935.5C677.752,-911.323 657.938,-893.802 635.984,-881.325"/>
<polygon fill="black" stroke="black" points="637.624,-878.233 627.152,-876.62 634.332,-884.411 637.624,-878.233"/>
<path fill="none" stroke="black" d="M680.286,-1101.5C657.027,-1032.39 706.983,-1007.12 685.286,-937.5"/>
</g>
<!-- apply_filter_14 -->
<g id="node14" class="node"><title>apply_filter_14</title>
<polygon fill="none" stroke="black" points="30.7862,-415.5 30.7862,-461.5 233.786,-461.5 233.786,-415.5 30.7862,-415.5"/>
<text text-anchor="middle" x="81.2862" y="-434.8" font-family="Times New Roman,serif" font-size="14.00">apply_filter_14</text>
<polyline fill="none" stroke="black" points="131.786,-415.5 131.786,-461.5 "/>
<text text-anchor="middle" x="182.786" y="-446.3" font-family="Times New Roman,serif" font-size="14.00">shape:</text>
<polyline fill="none" stroke="black" points="131.786,-438.5 233.786,-438.5 "/>
<text text-anchor="middle" x="182.786" y="-423.3" font-family="Times New Roman,serif" font-size="14.00">[2, 512, 512, 1]</text>
</g>
<!-- mean_filter_weights&#45;&gt;apply_filter_14 -->
<g id="edge30" class="edge"><title>mean_filter_weights:0&#45;&gt;apply_filter_14:0</title>
<path fill="none" stroke="black" d="M132.286,-520.5C119.195,-508.611 118.809,-488.953 121.879,-471.865"/>
<polygon fill="black" stroke="black" points="125.397,-472.171 124.155,-461.65 118.564,-470.649 125.397,-472.171"/>
</g>
<!-- apply_filter_15 -->
<g id="node15" class="node"><title>apply_filter_15</title>
<polygon fill="none" stroke="black" points="453.786,-332.5 453.786,-378.5 656.786,-378.5 656.786,-332.5 453.786,-332.5"/>
<text text-anchor="middle" x="504.286" y="-351.8" font-family="Times New Roman,serif" font-size="14.00">apply_filter_15</text>
<polyline fill="none" stroke="black" points="554.786,-332.5 554.786,-378.5 "/>
<text text-anchor="middle" x="605.786" y="-363.3" font-family="Times New Roman,serif" font-size="14.00">shape:</text>
<polyline fill="none" stroke="black" points="554.786,-355.5 656.786,-355.5 "/>
<text text-anchor="middle" x="605.786" y="-340.3" font-family="Times New Roman,serif" font-size="14.00">[2, 512, 512, 1]</text>
</g>
<!-- mean_filter_weights&#45;&gt;apply_filter_15 -->
<g id="edge32" class="edge"><title>mean_filter_weights:0&#45;&gt;apply_filter_15:0</title>
<path fill="none" stroke="black" d="M685.286,-437.5C665.835,-381.115 598.283,-426.2 561.517,-386.94"/>
<polygon fill="black" stroke="black" points="563.926,-384.336 555.029,-378.585 558.397,-388.63 563.926,-384.336"/>
<path fill="none" stroke="black" d="M685.286,-686.5C649.487,-582.724 721.086,-543.276 685.286,-439.5"/>
</g>
<!-- apply_filter_4 -->
<g id="node16" class="node"><title>apply_filter_4</title>
<polygon fill="none" stroke="black" points="456.286,-1245.5 456.286,-1291.5 652.286,-1291.5 652.286,-1245.5 456.286,-1245.5"/>
<text text-anchor="middle" x="503.286" y="-1264.8" font-family="Times New Roman,serif" font-size="14.00">apply_filter_4</text>
<polyline fill="none" stroke="black" points="550.286,-1245.5 550.286,-1291.5 "/>
<text text-anchor="middle" x="601.286" y="-1276.3" font-family="Times New Roman,serif" font-size="14.00">shape:</text>
<polyline fill="none" stroke="black" points="550.286,-1268.5 652.286,-1268.5 "/>
<text text-anchor="middle" x="601.286" y="-1253.3" font-family="Times New Roman,serif" font-size="14.00">[2, 512, 512, 1]</text>
</g>
<!-- mean_filter_weights&#45;&gt;apply_filter_4 -->
<g id="edge10" class="edge"><title>mean_filter_weights:0&#45;&gt;apply_filter_4:0</title>
<path fill="none" stroke="black" d="M680.286,-1350.5C672.238,-1326.59 652.298,-1309.04 630.596,-1296.46"/>
<polygon fill="black" stroke="black" points="632.009,-1293.24 621.552,-1291.54 628.664,-1299.39 632.009,-1293.24"/>
<path fill="none" stroke="black" d="M680.286,-1433.5C686.36,-1398.02 691.769,-1386.62 680.286,-1352.5"/>
</g>
<!-- apply_filter_1 -->
<g id="node17" class="node"><title>apply_filter_1</title>
<polygon fill="none" stroke="black" points="330.286,-1494.5 330.286,-1540.5 526.286,-1540.5 526.286,-1494.5 330.286,-1494.5"/>
<text text-anchor="middle" x="377.286" y="-1513.8" font-family="Times New Roman,serif" font-size="14.00">apply_filter_1</text>
<polyline fill="none" stroke="black" points="424.286,-1494.5 424.286,-1540.5 "/>
<text text-anchor="middle" x="475.286" y="-1525.3" font-family="Times New Roman,serif" font-size="14.00">shape:</text>
<polyline fill="none" stroke="black" points="424.286,-1517.5 526.286,-1517.5 "/>
<text text-anchor="middle" x="475.286" y="-1502.3" font-family="Times New Roman,serif" font-size="14.00">[2, 512, 512, 1]</text>
</g>
<!-- mean_filter_weights&#45;&gt;apply_filter_1 -->
<g id="edge4" class="edge"><title>mean_filter_weights:0&#45;&gt;apply_filter_1:0</title>
<path fill="none" stroke="black" d="M491.286,-1599.5C484.909,-1580.55 472.156,-1562.57 459.782,-1548.3"/>
<polygon fill="black" stroke="black" points="462.288,-1545.85 452.99,-1540.77 457.09,-1550.54 462.288,-1545.85"/>
</g>
<!-- apply_filter_10 -->
<g id="node18" class="node"><title>apply_filter_10</title>
<polygon fill="none" stroke="black" points="453.786,-747.5 453.786,-793.5 656.786,-793.5 656.786,-747.5 453.786,-747.5"/>
<text text-anchor="middle" x="504.286" y="-766.8" font-family="Times New Roman,serif" font-size="14.00">apply_filter_10</text>
<polyline fill="none" stroke="black" points="554.786,-747.5 554.786,-793.5 "/>
<text text-anchor="middle" x="605.786" y="-778.3" font-family="Times New Roman,serif" font-size="14.00">shape:</text>
<polyline fill="none" stroke="black" points="554.786,-770.5 656.786,-770.5 "/>
<text text-anchor="middle" x="605.786" y="-755.3" font-family="Times New Roman,serif" font-size="14.00">[2, 512, 512, 1]</text>
</g>
<!-- mean_filter_weights&#45;&gt;apply_filter_10 -->
<g id="edge22" class="edge"><title>mean_filter_weights:0&#45;&gt;apply_filter_10:0</title>
<path fill="none" stroke="black" d="M685.286,-852.5C680.623,-838.982 674.481,-837.468 662.286,-830 622.673,-805.741 589.795,-830.466 561.68,-801.621"/>
<polygon fill="black" stroke="black" points="564.094,-799.049 555.009,-793.598 558.711,-803.525 564.094,-799.049"/>
<path fill="none" stroke="black" d="M685.286,-935.5C674.163,-901.262 697.026,-888.532 685.286,-854.5"/>
</g>
<!-- apply_filter_17 -->
<g id="node19" class="node"><title>apply_filter_17</title>
<polygon fill="none" stroke="black" points="453.786,-166.5 453.786,-212.5 656.786,-212.5 656.786,-166.5 453.786,-166.5"/>
<text text-anchor="middle" x="504.286" y="-185.8" font-family="Times New Roman,serif" font-size="14.00">apply_filter_17</text>
<polyline fill="none" stroke="black" points="554.786,-166.5 554.786,-212.5 "/>
<text text-anchor="middle" x="605.786" y="-197.3" font-family="Times New Roman,serif" font-size="14.00">shape:</text>
<polyline fill="none" stroke="black" points="554.786,-189.5 656.786,-189.5 "/>
<text text-anchor="middle" x="605.786" y="-174.3" font-family="Times New Roman,serif" font-size="14.00">[2, 512, 512, 1]</text>
</g>
<!-- mean_filter_weights&#45;&gt;apply_filter_17 -->
<g id="edge36" class="edge"><title>mean_filter_weights:0&#45;&gt;apply_filter_17:0</title>
<path fill="none" stroke="black" d="M685.286,-271.5C669.878,-226.834 592.424,-219.184 564.757,-214.991"/>
<polygon fill="black" stroke="black" points="565.554,-211.583 555.008,-212.599 563.885,-218.381 565.554,-211.583"/>
<path fill="none" stroke="black" d="M685.286,-354.5C673.546,-320.468 697.026,-307.532 685.286,-273.5"/>
</g>
<!-- mean_filter_weights&#45;&gt;apply_filter_19 -->
<g id="edge40" class="edge"><title>mean_filter_weights:0&#45;&gt;apply_filter_19:0</title>
<path fill="none" stroke="black" d="M685.286,-271.5C657.812,-191.858 705.742,-156.899 665.286,-83 654.813,-63.8686 637.59,-67.9547 625.73,-55.0595"/>
<polygon fill="black" stroke="black" points="628.529,-52.9483 620.081,-46.5554 622.699,-56.8217 628.529,-52.9483"/>
</g>
<!-- mean_filter_weights&#45;&gt;apply_filter_13 -->
<g id="edge28" class="edge"><title>mean_filter_weights:0&#45;&gt;apply_filter_13:0</title>
<path fill="none" stroke="black" d="M262.286,-603.5C256.968,-588.082 256.409,-570.042 257.416,-554.814"/>
<polygon fill="black" stroke="black" points="260.907,-555.063 258.323,-544.788 253.936,-554.431 260.907,-555.063"/>
</g>
<!-- apply_filter_16 -->
<g id="node22" class="node"><title>apply_filter_16</title>
<polygon fill="none" stroke="black" points="453.786,-249.5 453.786,-295.5 656.786,-295.5 656.786,-249.5 453.786,-249.5"/>
<text text-anchor="middle" x="504.286" y="-268.8" font-family="Times New Roman,serif" font-size="14.00">apply_filter_16</text>
<polyline fill="none" stroke="black" points="554.786,-249.5 554.786,-295.5 "/>
<text text-anchor="middle" x="605.786" y="-280.3" font-family="Times New Roman,serif" font-size="14.00">shape:</text>
<polyline fill="none" stroke="black" points="554.786,-272.5 656.786,-272.5 "/>
<text text-anchor="middle" x="605.786" y="-257.3" font-family="Times New Roman,serif" font-size="14.00">[2, 512, 512, 1]</text>
</g>
<!-- mean_filter_weights&#45;&gt;apply_filter_16 -->
<g id="edge34" class="edge"><title>mean_filter_weights:0&#45;&gt;apply_filter_16:0</title>
<path fill="none" stroke="black" d="M685.286,-354.5C669.878,-309.834 592.424,-302.184 564.757,-297.991"/>
<polygon fill="black" stroke="black" points="565.554,-294.583 555.008,-295.599 563.885,-301.381 565.554,-294.583"/>
<path fill="none" stroke="black" d="M685.286,-437.5C671.925,-404.071 697.026,-390.532 685.286,-356.5"/>
</g>
<!-- apply_filter_3 -->
<g id="node23" class="node"><title>apply_filter_3</title>
<polygon fill="none" stroke="black" points="456.286,-1328.5 456.286,-1374.5 652.286,-1374.5 652.286,-1328.5 456.286,-1328.5"/>
<text text-anchor="middle" x="503.286" y="-1347.8" font-family="Times New Roman,serif" font-size="14.00">apply_filter_3</text>
<polyline fill="none" stroke="black" points="550.286,-1328.5 550.286,-1374.5 "/>
<text text-anchor="middle" x="601.286" y="-1359.3" font-family="Times New Roman,serif" font-size="14.00">shape:</text>
<polyline fill="none" stroke="black" points="550.286,-1351.5 652.286,-1351.5 "/>
<text text-anchor="middle" x="601.286" y="-1336.3" font-family="Times New Roman,serif" font-size="14.00">[2, 512, 512, 1]</text>
</g>
<!-- mean_filter_weights&#45;&gt;apply_filter_3 -->
<g id="edge8" class="edge"><title>mean_filter_weights:0&#45;&gt;apply_filter_3:0</title>
<path fill="none" stroke="black" d="M680.286,-1433.5C684.446,-1409.2 668.38,-1391.67 646.449,-1379.22"/>
<polygon fill="black" stroke="black" points="647.925,-1376.04 637.439,-1374.53 644.691,-1382.25 647.925,-1376.04"/>
<path fill="none" stroke="black" d="M554.286,-1516.5C574.886,-1453.19 669.054,-1501.12 680.286,-1435.5"/>
</g>
<!-- apply_filter_7&#45;&gt;apply_filter_8 -->
<g id="edge17" class="edge"><title>apply_filter_7:0&#45;&gt;apply_filter_8:0</title>
<path fill="none" stroke="black" d="M554.286,-996.38C554.286,-988.175 554.286,-978.768 554.286,-969.879"/>
<polygon fill="black" stroke="black" points="557.786,-969.784 554.286,-959.784 550.786,-969.784 557.786,-969.784"/>
</g>
<!-- apply_filter_2&#45;&gt;apply_filter_3 -->
<g id="edge7" class="edge"><title>apply_filter_2:0&#45;&gt;apply_filter_3:0</title>
<path fill="none" stroke="black" d="M554.286,-1411.38C554.286,-1403.17 554.286,-1393.77 554.286,-1384.88"/>
<polygon fill="black" stroke="black" points="557.786,-1384.78 554.286,-1374.78 550.786,-1384.78 557.786,-1384.78"/>
</g>
<!-- apply_filter_8&#45;&gt;apply_filter_9 -->
<g id="edge19" class="edge"><title>apply_filter_8:0&#45;&gt;apply_filter_9:0</title>
<path fill="none" stroke="black" d="M554.565,-913.38C554.664,-905.175 554.777,-895.768 554.884,-886.879"/>
<polygon fill="black" stroke="black" points="558.385,-886.825 555.006,-876.784 551.385,-886.741 558.385,-886.825"/>
</g>
<!-- apply_filter_0&#45;&gt;apply_filter_1 -->
<g id="edge3" class="edge"><title>apply_filter_0:0&#45;&gt;apply_filter_1:0</title>
<path fill="none" stroke="black" d="M395.055,-1577.28C403.619,-1569.38 412.478,-1559.9 419.408,-1549.29"/>
<polygon fill="black" stroke="black" points="422.489,-1550.96 424.509,-1540.55 416.444,-1547.43 422.489,-1550.96"/>
</g>
<!-- apply_filter_5&#45;&gt;apply_filter_6 -->
<g id="edge13" class="edge"><title>apply_filter_5:0&#45;&gt;apply_filter_6:0</title>
<path fill="none" stroke="black" d="M554.286,-1162.38C554.286,-1154.17 554.286,-1144.77 554.286,-1135.88"/>
<polygon fill="black" stroke="black" points="557.786,-1135.78 554.286,-1125.78 550.786,-1135.78 557.786,-1135.78"/>
</g>
<!-- apply_filter_9&#45;&gt;Less -->
<g id="edge42" class="edge"><title>apply_filter_9:0&#45;&gt;Less:0</title>
<path fill="none" stroke="black" d="M551.606,-830.379C551.502,-830.251 551.395,-830.125 551.286,-830 517.945,-791.928 490.374,-807.992 443.431,-796.26"/>
<polygon fill="black" stroke="black" points="444.353,-792.884 433.777,-793.519 442.441,-799.618 444.353,-792.884"/>
</g>
<!-- apply_filter_9&#45;&gt;apply_filter_10 -->
<g id="edge21" class="edge"><title>apply_filter_9:0&#45;&gt;apply_filter_10:0</title>
<path fill="none" stroke="black" d="M555.286,-830.38C555.286,-822.175 555.286,-812.768 555.286,-803.879"/>
<polygon fill="black" stroke="black" points="558.786,-803.784 555.286,-793.784 551.786,-803.784 558.786,-803.784"/>
</g>
<!-- apply_filter_14&#45;&gt;apply_filter_15 -->
<g id="edge31" class="edge"><title>apply_filter_14:0&#45;&gt;apply_filter_15:0</title>
<path fill="none" stroke="black" d="M131.97,-415.371C132.072,-415.245 132.177,-415.122 132.286,-415 178.225,-363.639 366.16,-388.769 446.772,-379.939"/>
<polygon fill="black" stroke="black" points="447.531,-383.368 456.959,-378.534 446.574,-376.433 447.531,-383.368"/>
</g>
<!-- apply_filter_15&#45;&gt;apply_filter_16 -->
<g id="edge33" class="edge"><title>apply_filter_15:0&#45;&gt;apply_filter_16:0</title>
<path fill="none" stroke="black" d="M555.286,-332.38C555.286,-324.175 555.286,-314.768 555.286,-305.879"/>
<polygon fill="black" stroke="black" points="558.786,-305.784 555.286,-295.784 551.786,-305.784 558.786,-305.784"/>
</g>
<!-- apply_filter_4&#45;&gt;Less -->
<g id="edge41" class="edge"><title>apply_filter_4:0&#45;&gt;Less:0</title>
<path fill="none" stroke="black" d="M550.6,-1245.38C550.497,-1245.25 550.393,-1245.13 550.286,-1245 518.987,-1207.96 478.762,-1245.89 447.286,-1209 416.362,-1172.76 428.286,-1151.14 428.286,-1103.5 428.286,-1103.5 428.286,-1103.5 428.286,-935.5 428.286,-886.601 403.268,-834.868 384.274,-802.639"/>
<polygon fill="black" stroke="black" points="387.028,-800.428 378.855,-793.686 381.039,-804.053 387.028,-800.428"/>
</g>
<!-- apply_filter_4&#45;&gt;apply_filter_5 -->
<g id="edge11" class="edge"><title>apply_filter_4:0&#45;&gt;apply_filter_5:0</title>
<path fill="none" stroke="black" d="M554.286,-1245.38C554.286,-1237.17 554.286,-1227.77 554.286,-1218.88"/>
<polygon fill="black" stroke="black" points="557.786,-1218.78 554.286,-1208.78 550.786,-1218.78 557.786,-1218.78"/>
</g>
<!-- apply_filter_1&#45;&gt;apply_filter_2 -->
<g id="edge5" class="edge"><title>apply_filter_1:0&#45;&gt;apply_filter_2:0</title>
<path fill="none" stroke="black" d="M503.431,-1494.47C518.151,-1487.2 532.486,-1477.83 543.884,-1465.59"/>
<polygon fill="black" stroke="black" points="546.841,-1467.51 550.578,-1457.6 541.474,-1463.02 546.841,-1467.51"/>
</g>
<!-- apply_filter_10&#45;&gt;apply_filter_11 -->
<g id="edge23" class="edge"><title>apply_filter_10:0&#45;&gt;apply_filter_11:0</title>
<path fill="none" stroke="black" d="M555.286,-747.38C555.286,-739.175 555.286,-729.768 555.286,-720.879"/>
<polygon fill="black" stroke="black" points="558.786,-720.784 555.286,-710.784 551.786,-720.784 558.786,-720.784"/>
</g>
<!-- apply_filter_17&#45;&gt;apply_filter_18 -->
<g id="edge37" class="edge"><title>apply_filter_17:0&#45;&gt;apply_filter_18:0</title>
<path fill="none" stroke="black" d="M555.286,-166.38C555.286,-158.175 555.286,-148.768 555.286,-139.879"/>
<polygon fill="black" stroke="black" points="558.786,-139.784 555.286,-129.784 551.786,-139.784 558.786,-139.784"/>
</g>
<!-- apply_filter_13&#45;&gt;apply_filter_14 -->
<g id="edge29" class="edge"><title>apply_filter_13:0&#45;&gt;apply_filter_14:0</title>
<path fill="none" stroke="black" d="M175.64,-498.499C161.436,-491.356 148.107,-482.042 137.935,-469.682"/>
<polygon fill="black" stroke="black" points="140.75,-467.601 132.03,-461.584 135.094,-471.726 140.75,-467.601"/>
</g>
<!-- apply_filter_16&#45;&gt;apply_filter_17 -->
<g id="edge35" class="edge"><title>apply_filter_16:0&#45;&gt;apply_filter_17:0</title>
<path fill="none" stroke="black" d="M555.286,-249.38C555.286,-241.175 555.286,-231.768 555.286,-222.879"/>
<polygon fill="black" stroke="black" points="558.786,-222.784 555.286,-212.784 551.786,-222.784 558.786,-222.784"/>
</g>
<!-- apply_filter_3&#45;&gt;apply_filter_4 -->
<g id="edge9" class="edge"><title>apply_filter_3:0&#45;&gt;apply_filter_4:0</title>
<path fill="none" stroke="black" d="M554.286,-1328.38C554.286,-1320.17 554.286,-1310.77 554.286,-1301.88"/>
<polygon fill="black" stroke="black" points="557.786,-1301.78 554.286,-1291.78 550.786,-1301.78 557.786,-1301.78"/>
</g>
</g>
</svg>
