<?xml version="1.0" encoding="UTF-8" standalone="no"?>
<!DOCTYPE svg PUBLIC "-//W3C//DTD SVG 1.1//EN"
 "http://www.w3.org/Graphics/SVG/1.1/DTD/svg11.dtd">
<!-- Generated by graphviz version 2.38.0 (20140413.2041)
 -->
<!-- Title: G Pages: 1 -->
<svg width="366pt" height="120pt"
 viewBox="0.00 0.00 366.00 120.00" xmlns="http://www.w3.org/2000/svg" xmlns:xlink="http://www.w3.org/1999/xlink">
<g id="graph0" class="graph" transform="scale(1 1) rotate(0) translate(4 116)">
<title>G</title>
<polygon fill="white" stroke="none" points="-4,4 -4,-116 362,-116 362,4 -4,4"/>
<!-- Placeholder -->
<g id="node1" class="node"><title>Placeholder</title>
<polygon fill="none" stroke="black" points="0,-65.5 0,-111.5 161,-111.5 161,-65.5 0,-65.5"/>
<text text-anchor="middle" x="80.5" y="-96.3" font-family="Times New Roman,serif" font-size="14.00">Placeholder</text>
<polyline fill="none" stroke="black" points="0,-88.5 161,-88.5 "/>
<text text-anchor="middle" x="26" y="-73.3" font-family="Times New Roman,serif" font-size="14.00">shape:</text>
<polyline fill="none" stroke="black" points="52,-65.5 52,-88.5 "/>
<text text-anchor="middle" x="106.5" y="-73.3" font-family="Times New Roman,serif" font-size="14.00">[25, 512, 512, 1]</text>
</g>
<!-- apply_filter -->
<g id="node2" class="node"><title>apply_filter</title>
<polygon fill="none" stroke="black" points="197,-32.5 197,-78.5 358,-78.5 358,-32.5 197,-32.5"/>
<text text-anchor="middle" x="277.5" y="-63.3" font-family="Times New Roman,serif" font-size="14.00">apply_filter</text>
<polyline fill="none" stroke="black" points="197,-55.5 358,-55.5 "/>
<text text-anchor="middle" x="223" y="-40.3" font-family="Times New Roman,serif" font-size="14.00">shape:</text>
<polyline fill="none" stroke="black" points="249,-32.5 249,-55.5 "/>
<text text-anchor="middle" x="303.5" y="-40.3" font-family="Times New Roman,serif" font-size="14.00">[25, 512, 512, 1]</text>
</g>
<!-- Placeholder&#45;&gt;apply_filter -->
<g id="edge1" class="edge"><title>Placeholder:0&#45;&gt;apply_filter:0</title>
<path fill="none" stroke="black" d="M161.16,-88.4656C162.629,-88.1138 173.03,-85.1938 187.059,-81.2247"/>
<polygon fill="black" stroke="black" points="188.076,-84.5742 196.744,-78.4813 186.169,-77.8391 188.076,-84.5742"/>
</g>
<!-- convolution_weights -->
<g id="node3" class="node"><title>convolution_weights</title>
<polygon fill="none" stroke="black" points="10,-0.5 10,-46.5 151,-46.5 151,-0.5 10,-0.5"/>
<text text-anchor="middle" x="80.5" y="-31.3" font-family="Times New Roman,serif" font-size="14.00">convolution_weights</text>
<polyline fill="none" stroke="black" points="10,-23.5 151,-23.5 "/>
<text text-anchor="middle" x="36" y="-8.3" font-family="Times New Roman,serif" font-size="14.00">shape:</text>
<polyline fill="none" stroke="black" points="62,-0.5 62,-23.5 "/>
<text text-anchor="middle" x="106.5" y="-8.3" font-family="Times New Roman,serif" font-size="14.00">[60, 60, 1, 1]</text>
</g>
<!-- convolution_weights&#45;&gt;apply_filter -->
<g id="edge2" class="edge"><title>convolution_weights:0&#45;&gt;apply_filter:0</title>
<path fill="none" stroke="black" d="M151.032,-46.1218C162.674,-49.1437 174.833,-51.8947 186.731,-53.9255"/>
<polygon fill="black" stroke="black" points="186.23,-57.3896 196.647,-55.4521 187.296,-50.4712 186.23,-57.3896"/>
</g>
</g>
</svg>
